<mxfile host="app.diagrams.net" modified="2023-04-22T13:40:55.813Z" agent="Mozilla/5.0 (Windows NT 10.0; Win64; x64) AppleWebKit/537.36 (KHTML, like Gecko) Chrome/112.0.0.0 Safari/537.36" etag="8Qdq-OMNSCXIY0UzjKIr" version="21.1.8" type="device">
  <diagram id="C5RBs43oDa-KdzZeNtuy" name="Page-1">
    <mxGraphModel dx="2049" dy="2260" grid="1" gridSize="10" guides="1" tooltips="1" connect="1" arrows="1" fold="1" page="1" pageScale="1" pageWidth="827" pageHeight="1169" math="0" shadow="0">
      <root>
        <mxCell id="WIyWlLk6GJQsqaUBKTNV-0" />
        <mxCell id="WIyWlLk6GJQsqaUBKTNV-1" parent="WIyWlLk6GJQsqaUBKTNV-0" />
        <mxCell id="xz_jrUkNwj7nFp_zfLoB-0" value="Author" style="verticalLabelPosition=bottom;verticalAlign=top;html=1;shape=mxgraph.basic.star;fillColor=#dae8fc;strokeColor=#6c8ebf;gradientColor=#7ea6e0;" parent="WIyWlLk6GJQsqaUBKTNV-1" vertex="1">
          <mxGeometry x="90" y="80" width="100" height="95" as="geometry" />
        </mxCell>
        <mxCell id="xz_jrUkNwj7nFp_zfLoB-6" value="Main smart contract" style="strokeWidth=2;html=1;shape=mxgraph.flowchart.database;whiteSpace=wrap;" parent="WIyWlLk6GJQsqaUBKTNV-1" vertex="1">
          <mxGeometry x="570" y="80" width="120" height="122" as="geometry" />
        </mxCell>
        <mxCell id="xz_jrUkNwj7nFp_zfLoB-13" value="" style="endArrow=classic;html=1;rounded=0;exitX=-0.025;exitY=0.279;exitDx=0;exitDy=0;exitPerimeter=0;dashed=1;" parent="WIyWlLk6GJQsqaUBKTNV-1" source="xz_jrUkNwj7nFp_zfLoB-6" edge="1">
          <mxGeometry relative="1" as="geometry">
            <mxPoint x="350" y="30" as="sourcePoint" />
            <mxPoint x="190" y="141" as="targetPoint" />
            <Array as="points">
              <mxPoint x="260" y="110" />
            </Array>
          </mxGeometry>
        </mxCell>
        <mxCell id="xz_jrUkNwj7nFp_zfLoB-14" value="get&amp;nbsp;priceToMint()" style="edgeLabel;resizable=0;html=1;align=center;verticalAlign=middle;" parent="xz_jrUkNwj7nFp_zfLoB-13" connectable="0" vertex="1">
          <mxGeometry relative="1" as="geometry" />
        </mxCell>
        <mxCell id="xz_jrUkNwj7nFp_zfLoB-15" value="" style="endArrow=classic;html=1;rounded=0;shape=flexArrow;" parent="WIyWlLk6GJQsqaUBKTNV-1" edge="1">
          <mxGeometry relative="1" as="geometry">
            <mxPoint x="180" y="146" as="sourcePoint" />
            <mxPoint x="570" y="146" as="targetPoint" />
          </mxGeometry>
        </mxCell>
        <mxCell id="xz_jrUkNwj7nFp_zfLoB-16" value="safeMint(), pay BNB" style="edgeLabel;resizable=0;html=1;align=center;verticalAlign=middle;" parent="xz_jrUkNwj7nFp_zfLoB-15" connectable="0" vertex="1">
          <mxGeometry relative="1" as="geometry" />
        </mxCell>
        <mxCell id="xz_jrUkNwj7nFp_zfLoB-17" value="" style="endArrow=classic;html=1;rounded=0;entryX=1;entryY=0.367;entryDx=0;entryDy=0;entryPerimeter=0;exitX=-0.042;exitY=0.582;exitDx=0;exitDy=0;exitPerimeter=0;" parent="WIyWlLk6GJQsqaUBKTNV-1" source="xz_jrUkNwj7nFp_zfLoB-6" edge="1">
          <mxGeometry relative="1" as="geometry">
            <mxPoint x="567" y="175" as="sourcePoint" />
            <mxPoint x="170" y="176" as="targetPoint" />
            <Array as="points">
              <mxPoint x="490" y="180" />
            </Array>
          </mxGeometry>
        </mxCell>
        <mxCell id="xz_jrUkNwj7nFp_zfLoB-18" value="get NFT token" style="edgeLabel;resizable=0;html=1;align=center;verticalAlign=middle;" parent="xz_jrUkNwj7nFp_zfLoB-17" connectable="0" vertex="1">
          <mxGeometry relative="1" as="geometry" />
        </mxCell>
        <mxCell id="xz_jrUkNwj7nFp_zfLoB-19" value="Author with NFT" style="verticalLabelPosition=bottom;verticalAlign=top;html=1;shape=mxgraph.basic.star;fillColor=#ffcd28;strokeColor=#d79b00;gradientColor=#ffa500;" parent="WIyWlLk6GJQsqaUBKTNV-1" vertex="1">
          <mxGeometry x="310" y="360" width="100" height="95" as="geometry" />
        </mxCell>
        <mxCell id="xz_jrUkNwj7nFp_zfLoB-21" value="" style="endArrow=classic;html=1;rounded=0;exitX=0.5;exitY=0;exitDx=0;exitDy=0;exitPerimeter=0;entryX=0;entryY=0.85;entryDx=0;entryDy=0;entryPerimeter=0;dashed=1;" parent="WIyWlLk6GJQsqaUBKTNV-1" source="xz_jrUkNwj7nFp_zfLoB-19" target="xz_jrUkNwj7nFp_zfLoB-6" edge="1">
          <mxGeometry relative="1" as="geometry">
            <mxPoint x="190" y="340" as="sourcePoint" />
            <mxPoint x="460" y="350" as="targetPoint" />
          </mxGeometry>
        </mxCell>
        <mxCell id="xz_jrUkNwj7nFp_zfLoB-22" value="addDonateAddress()" style="edgeLabel;resizable=0;html=1;align=center;verticalAlign=middle;" parent="xz_jrUkNwj7nFp_zfLoB-21" connectable="0" vertex="1">
          <mxGeometry relative="1" as="geometry" />
        </mxCell>
        <mxCell id="xz_jrUkNwj7nFp_zfLoB-23" value="User" style="shape=umlActor;verticalLabelPosition=bottom;verticalAlign=top;html=1;outlineConnect=0;" parent="WIyWlLk6GJQsqaUBKTNV-1" vertex="1">
          <mxGeometry x="670" y="345" width="30" height="60" as="geometry" />
        </mxCell>
        <mxCell id="xz_jrUkNwj7nFp_zfLoB-24" value="Creator (contract owner)" style="verticalLabelPosition=bottom;verticalAlign=top;html=1;shape=mxgraph.basic.banner" parent="WIyWlLk6GJQsqaUBKTNV-1" vertex="1">
          <mxGeometry x="680" y="-70" width="100" height="50" as="geometry" />
        </mxCell>
        <mxCell id="xz_jrUkNwj7nFp_zfLoB-26" value="" style="endArrow=classic;html=1;rounded=0;exitX=0.25;exitY=0.1;exitDx=0;exitDy=0;exitPerimeter=0;entryX=1;entryY=0.367;entryDx=0;entryDy=0;entryPerimeter=0;shape=flexArrow;" parent="WIyWlLk6GJQsqaUBKTNV-1" source="xz_jrUkNwj7nFp_zfLoB-23" target="xz_jrUkNwj7nFp_zfLoB-19" edge="1">
          <mxGeometry relative="1" as="geometry">
            <mxPoint x="340" y="390" as="sourcePoint" />
            <mxPoint x="430" y="430" as="targetPoint" />
            <Array as="points">
              <mxPoint x="630" y="200" />
            </Array>
          </mxGeometry>
        </mxCell>
        <mxCell id="xz_jrUkNwj7nFp_zfLoB-27" value="Donation" style="edgeLabel;resizable=0;html=1;align=center;verticalAlign=middle;" parent="xz_jrUkNwj7nFp_zfLoB-26" connectable="0" vertex="1">
          <mxGeometry relative="1" as="geometry" />
        </mxCell>
        <mxCell id="xz_jrUkNwj7nFp_zfLoB-29" value="" style="endArrow=classic;html=1;rounded=0;exitX=0.5;exitY=1;exitDx=0;exitDy=0;exitPerimeter=0;shape=flexArrow;" parent="WIyWlLk6GJQsqaUBKTNV-1" source="xz_jrUkNwj7nFp_zfLoB-6" target="xz_jrUkNwj7nFp_zfLoB-24" edge="1">
          <mxGeometry width="50" height="50" relative="1" as="geometry">
            <mxPoint x="700" y="310" as="sourcePoint" />
            <mxPoint x="750" y="260" as="targetPoint" />
            <Array as="points">
              <mxPoint x="710" y="220" />
              <mxPoint x="710" y="30" />
            </Array>
          </mxGeometry>
        </mxCell>
        <mxCell id="xz_jrUkNwj7nFp_zfLoB-30" value="Donation fee" style="edgeLabel;html=1;align=center;verticalAlign=middle;resizable=0;points=[];" parent="xz_jrUkNwj7nFp_zfLoB-29" vertex="1" connectable="0">
          <mxGeometry x="0.1404" relative="1" as="geometry">
            <mxPoint as="offset" />
          </mxGeometry>
        </mxCell>
        <mxCell id="xz_jrUkNwj7nFp_zfLoB-38" value="" style="edgeStyle=orthogonalEdgeStyle;rounded=0;orthogonalLoop=1;jettySize=auto;html=1;shape=flexArrow;" parent="WIyWlLk6GJQsqaUBKTNV-1" source="xz_jrUkNwj7nFp_zfLoB-31" target="xz_jrUkNwj7nFp_zfLoB-37" edge="1">
          <mxGeometry relative="1" as="geometry" />
        </mxCell>
        <mxCell id="xz_jrUkNwj7nFp_zfLoB-40" value="Collecting donations" style="edgeLabel;html=1;align=center;verticalAlign=middle;resizable=0;points=[];" parent="xz_jrUkNwj7nFp_zfLoB-38" vertex="1" connectable="0">
          <mxGeometry x="0.1712" y="1" relative="1" as="geometry">
            <mxPoint x="-1" y="13" as="offset" />
          </mxGeometry>
        </mxCell>
        <mxCell id="xz_jrUkNwj7nFp_zfLoB-31" value="Private payment contract" style="strokeWidth=2;html=1;shape=mxgraph.flowchart.database;whiteSpace=wrap;" parent="WIyWlLk6GJQsqaUBKTNV-1" vertex="1">
          <mxGeometry x="770" y="80" width="120" height="122" as="geometry" />
        </mxCell>
        <mxCell id="xz_jrUkNwj7nFp_zfLoB-32" value="" style="endArrow=classic;html=1;rounded=0;entryX=0.5;entryY=1;entryDx=0;entryDy=0;entryPerimeter=0;exitX=0.25;exitY=0.1;exitDx=0;exitDy=0;exitPerimeter=0;shape=flexArrow;" parent="WIyWlLk6GJQsqaUBKTNV-1" source="xz_jrUkNwj7nFp_zfLoB-39" target="xz_jrUkNwj7nFp_zfLoB-31" edge="1">
          <mxGeometry relative="1" as="geometry">
            <mxPoint x="980" y="360" as="sourcePoint" />
            <mxPoint x="890" y="330" as="targetPoint" />
          </mxGeometry>
        </mxCell>
        <mxCell id="xz_jrUkNwj7nFp_zfLoB-33" value="Private donation" style="edgeLabel;resizable=0;html=1;align=center;verticalAlign=middle;" parent="xz_jrUkNwj7nFp_zfLoB-32" connectable="0" vertex="1">
          <mxGeometry relative="1" as="geometry" />
        </mxCell>
        <mxCell id="xz_jrUkNwj7nFp_zfLoB-37" value="Generate hashes chain by authors secret key" style="rounded=1;whiteSpace=wrap;html=1;strokeWidth=2;" parent="WIyWlLk6GJQsqaUBKTNV-1" vertex="1">
          <mxGeometry x="770" y="345" width="120" height="60" as="geometry" />
        </mxCell>
        <mxCell id="xz_jrUkNwj7nFp_zfLoB-39" value="User" style="shape=umlActor;verticalLabelPosition=bottom;verticalAlign=top;html=1;outlineConnect=0;" parent="WIyWlLk6GJQsqaUBKTNV-1" vertex="1">
          <mxGeometry x="980" y="310" width="30" height="60" as="geometry" />
        </mxCell>
        <mxCell id="xz_jrUkNwj7nFp_zfLoB-41" value="" style="endArrow=classic;html=1;rounded=0;exitX=0.5;exitY=1;exitDx=0;exitDy=0;exitPerimeter=0;shape=flexArrow;" parent="WIyWlLk6GJQsqaUBKTNV-1" source="xz_jrUkNwj7nFp_zfLoB-31" edge="1">
          <mxGeometry width="50" height="50" relative="1" as="geometry">
            <mxPoint x="640" y="212" as="sourcePoint" />
            <mxPoint x="734" y="-20" as="targetPoint" />
            <Array as="points">
              <mxPoint x="750" y="220" />
              <mxPoint x="750" y="40" />
            </Array>
          </mxGeometry>
        </mxCell>
        <mxCell id="xz_jrUkNwj7nFp_zfLoB-42" value="Donation fee&lt;br&gt;from user" style="edgeLabel;html=1;align=center;verticalAlign=middle;resizable=0;points=[];" parent="xz_jrUkNwj7nFp_zfLoB-41" vertex="1" connectable="0">
          <mxGeometry x="0.1404" relative="1" as="geometry">
            <mxPoint y="-57" as="offset" />
          </mxGeometry>
        </mxCell>
        <mxCell id="xz_jrUkNwj7nFp_zfLoB-43" value="" style="curved=1;endArrow=classic;html=1;rounded=0;entryX=0.5;entryY=1;entryDx=0;entryDy=0;fillColor=#f8cecc;gradientColor=#ea6b66;strokeColor=#000000;shadow=0;dashed=1;" parent="WIyWlLk6GJQsqaUBKTNV-1" source="xz_jrUkNwj7nFp_zfLoB-19" target="xz_jrUkNwj7nFp_zfLoB-37" edge="1">
          <mxGeometry width="50" height="50" relative="1" as="geometry">
            <mxPoint x="540" y="560" as="sourcePoint" />
            <mxPoint x="590" y="510" as="targetPoint" />
            <Array as="points">
              <mxPoint x="600" y="530" />
              <mxPoint x="810" y="470" />
            </Array>
          </mxGeometry>
        </mxCell>
        <mxCell id="xz_jrUkNwj7nFp_zfLoB-44" value="Request donations&lt;br&gt;by zkSNARK" style="edgeLabel;html=1;align=center;verticalAlign=middle;resizable=0;points=[];" parent="xz_jrUkNwj7nFp_zfLoB-43" vertex="1" connectable="0">
          <mxGeometry x="0.0745" y="14" relative="1" as="geometry">
            <mxPoint y="1" as="offset" />
          </mxGeometry>
        </mxCell>
        <mxCell id="xz_jrUkNwj7nFp_zfLoB-45" value="" style="endArrow=classic;html=1;rounded=0;exitX=0.5;exitY=1;exitDx=0;exitDy=0;shape=link;" parent="WIyWlLk6GJQsqaUBKTNV-1" source="xz_jrUkNwj7nFp_zfLoB-37" edge="1">
          <mxGeometry width="50" height="50" relative="1" as="geometry">
            <mxPoint x="680" y="290" as="sourcePoint" />
            <mxPoint x="630" y="200" as="targetPoint" />
            <Array as="points">
              <mxPoint x="770" y="420" />
            </Array>
          </mxGeometry>
        </mxCell>
        <mxCell id="xz_jrUkNwj7nFp_zfLoB-46" value="Provider&lt;br&gt;is a wallet&lt;br&gt;controlled by us" style="shape=parallelogram;perimeter=parallelogramPerimeter;whiteSpace=wrap;html=1;fixedSize=1;" parent="WIyWlLk6GJQsqaUBKTNV-1" vertex="1">
          <mxGeometry x="770" y="540" width="120" height="60" as="geometry" />
        </mxCell>
        <mxCell id="xz_jrUkNwj7nFp_zfLoB-47" value="" style="curved=1;endArrow=classic;html=1;rounded=0;entryX=0;entryY=0.5;entryDx=0;entryDy=0;dashed=1;" parent="WIyWlLk6GJQsqaUBKTNV-1" target="xz_jrUkNwj7nFp_zfLoB-46" edge="1">
          <mxGeometry width="50" height="50" relative="1" as="geometry">
            <mxPoint x="410" y="440" as="sourcePoint" />
            <mxPoint x="560" y="600" as="targetPoint" />
            <Array as="points">
              <mxPoint x="470" y="520" />
              <mxPoint x="590" y="590" />
            </Array>
          </mxGeometry>
        </mxCell>
        <mxCell id="xz_jrUkNwj7nFp_zfLoB-48" value="Request donations&lt;br style=&quot;border-color: var(--border-color);&quot;&gt;by&amp;nbsp;provider" style="edgeLabel;html=1;align=center;verticalAlign=middle;resizable=0;points=[];" parent="xz_jrUkNwj7nFp_zfLoB-47" vertex="1" connectable="0">
          <mxGeometry x="0.1608" y="15" relative="1" as="geometry">
            <mxPoint as="offset" />
          </mxGeometry>
        </mxCell>
        <mxCell id="xz_jrUkNwj7nFp_zfLoB-49" value="" style="endArrow=classic;html=1;rounded=0;exitX=0.75;exitY=0;exitDx=0;exitDy=0;entryX=0.617;entryY=0.983;entryDx=0;entryDy=0;entryPerimeter=0;dashed=1;" parent="WIyWlLk6GJQsqaUBKTNV-1" source="xz_jrUkNwj7nFp_zfLoB-46" target="xz_jrUkNwj7nFp_zfLoB-37" edge="1">
          <mxGeometry width="50" height="50" relative="1" as="geometry">
            <mxPoint x="630" y="720" as="sourcePoint" />
            <mxPoint x="830" y="410" as="targetPoint" />
          </mxGeometry>
        </mxCell>
        <mxCell id="xz_jrUkNwj7nFp_zfLoB-50" value="Request&lt;br&gt;donation" style="edgeLabel;html=1;align=center;verticalAlign=middle;resizable=0;points=[];" parent="xz_jrUkNwj7nFp_zfLoB-49" vertex="1" connectable="0">
          <mxGeometry x="-0.1674" y="1" relative="1" as="geometry">
            <mxPoint x="1" as="offset" />
          </mxGeometry>
        </mxCell>
        <mxCell id="WPJfF_0o5p36wVQKlJD5-43" style="edgeStyle=orthogonalEdgeStyle;rounded=0;orthogonalLoop=1;jettySize=auto;html=1;exitX=1;exitY=0.367;exitDx=0;exitDy=0;exitPerimeter=0;entryX=1;entryY=0.25;entryDx=0;entryDy=0;startArrow=classic;startFill=1;" edge="1" parent="WIyWlLk6GJQsqaUBKTNV-1" source="WPJfF_0o5p36wVQKlJD5-0" target="WPJfF_0o5p36wVQKlJD5-14">
          <mxGeometry relative="1" as="geometry">
            <Array as="points">
              <mxPoint x="2270" y="-1045" />
              <mxPoint x="2270" y="-402" />
            </Array>
          </mxGeometry>
        </mxCell>
        <mxCell id="WPJfF_0o5p36wVQKlJD5-44" value="Модерирует чёрный список" style="edgeLabel;html=1;align=center;verticalAlign=middle;resizable=0;points=[];" vertex="1" connectable="0" parent="WPJfF_0o5p36wVQKlJD5-43">
          <mxGeometry x="-0.8099" y="3" relative="1" as="geometry">
            <mxPoint as="offset" />
          </mxGeometry>
        </mxCell>
        <mxCell id="WPJfF_0o5p36wVQKlJD5-0" value="Author with NFT" style="verticalLabelPosition=bottom;verticalAlign=top;html=1;shape=mxgraph.basic.star;fillColor=#ffcd28;strokeColor=#d79b00;gradientColor=#ffa500;" vertex="1" parent="WIyWlLk6GJQsqaUBKTNV-1">
          <mxGeometry x="1880" y="-1080" width="100" height="95" as="geometry" />
        </mxCell>
        <mxCell id="WPJfF_0o5p36wVQKlJD5-1" value="" style="endArrow=classic;html=1;rounded=0;entryX=0.5;entryY=0;entryDx=0;entryDy=0;" edge="1" parent="WIyWlLk6GJQsqaUBKTNV-1" source="WPJfF_0o5p36wVQKlJD5-0" target="WPJfF_0o5p36wVQKlJD5-3">
          <mxGeometry width="50" height="50" relative="1" as="geometry">
            <mxPoint x="1673" y="-683" as="sourcePoint" />
            <mxPoint x="1793" y="-683" as="targetPoint" />
          </mxGeometry>
        </mxCell>
        <mxCell id="WPJfF_0o5p36wVQKlJD5-2" value="Создаёт&lt;br&gt;новую подписку" style="edgeLabel;html=1;align=center;verticalAlign=middle;resizable=0;points=[];" vertex="1" connectable="0" parent="WPJfF_0o5p36wVQKlJD5-1">
          <mxGeometry x="0.25" y="1" relative="1" as="geometry">
            <mxPoint x="-1" as="offset" />
          </mxGeometry>
        </mxCell>
        <mxCell id="WPJfF_0o5p36wVQKlJD5-3" value="Оплата &lt;br&gt;ограничена &lt;br&gt;по времени" style="rhombus;whiteSpace=wrap;html=1;" vertex="1" parent="WIyWlLk6GJQsqaUBKTNV-1">
          <mxGeometry x="1855" y="-870" width="150" height="150" as="geometry" />
        </mxCell>
        <mxCell id="WPJfF_0o5p36wVQKlJD5-4" value="" style="endArrow=classic;html=1;rounded=0;exitX=1;exitY=0.5;exitDx=0;exitDy=0;entryX=0.5;entryY=0;entryDx=0;entryDy=0;" edge="1" parent="WIyWlLk6GJQsqaUBKTNV-1" source="WPJfF_0o5p36wVQKlJD5-3" target="WPJfF_0o5p36wVQKlJD5-5">
          <mxGeometry width="50" height="50" relative="1" as="geometry">
            <mxPoint x="2040" y="-780" as="sourcePoint" />
            <mxPoint x="2120" y="-660" as="targetPoint" />
            <Array as="points">
              <mxPoint x="2120" y="-795" />
            </Array>
          </mxGeometry>
        </mxCell>
        <mxCell id="WPJfF_0o5p36wVQKlJD5-7" value="Да" style="edgeLabel;html=1;align=center;verticalAlign=middle;resizable=0;points=[];" vertex="1" connectable="0" parent="WPJfF_0o5p36wVQKlJD5-4">
          <mxGeometry x="-0.4092" y="-1" relative="1" as="geometry">
            <mxPoint as="offset" />
          </mxGeometry>
        </mxCell>
        <mxCell id="WPJfF_0o5p36wVQKlJD5-15" style="edgeStyle=orthogonalEdgeStyle;rounded=0;orthogonalLoop=1;jettySize=auto;html=1;exitX=0.5;exitY=1;exitDx=0;exitDy=0;entryX=0.75;entryY=0;entryDx=0;entryDy=0;" edge="1" parent="WIyWlLk6GJQsqaUBKTNV-1" source="WPJfF_0o5p36wVQKlJD5-5" target="WPJfF_0o5p36wVQKlJD5-14">
          <mxGeometry relative="1" as="geometry" />
        </mxCell>
        <mxCell id="WPJfF_0o5p36wVQKlJD5-5" value="Regular Subscription:&lt;br&gt;&lt;br&gt;Вносимые значение:&lt;br&gt;- хэш (вместо имени)&lt;br&gt;- период оплаты&lt;br&gt;- токен&lt;br&gt;- цена&lt;br&gt;&lt;br&gt;Не регулируемые значения:&lt;br style=&quot;border-color: var(--border-color);&quot;&gt;id подписки&lt;br&gt;список участников&lt;br style=&quot;border-color: var(--border-color);&quot;&gt;рейтинг" style="shape=internalStorage;whiteSpace=wrap;html=1;backgroundOutline=1;" vertex="1" parent="WIyWlLk6GJQsqaUBKTNV-1">
          <mxGeometry x="2010" y="-700" width="220" height="220" as="geometry" />
        </mxCell>
        <mxCell id="WPJfF_0o5p36wVQKlJD5-16" style="edgeStyle=orthogonalEdgeStyle;rounded=0;orthogonalLoop=1;jettySize=auto;html=1;exitX=0.5;exitY=1;exitDx=0;exitDy=0;entryX=0.25;entryY=0;entryDx=0;entryDy=0;" edge="1" parent="WIyWlLk6GJQsqaUBKTNV-1" source="WPJfF_0o5p36wVQKlJD5-8" target="WPJfF_0o5p36wVQKlJD5-14">
          <mxGeometry relative="1" as="geometry" />
        </mxCell>
        <mxCell id="WPJfF_0o5p36wVQKlJD5-8" value="One-Time Subscription&lt;br&gt;&lt;br&gt;Вносимые значение:&lt;br&gt;- хэш (вместо имени)&lt;br&gt;- токен&lt;br&gt;- цена&lt;br&gt;&lt;br&gt;Не регулируемые значения:&lt;br&gt;id подписки&lt;br&gt;период оплаты = 0&lt;br&gt;список участников&lt;br&gt;рейтинг" style="shape=internalStorage;whiteSpace=wrap;html=1;backgroundOutline=1;" vertex="1" parent="WIyWlLk6GJQsqaUBKTNV-1">
          <mxGeometry x="1640" y="-700" width="220" height="220" as="geometry" />
        </mxCell>
        <mxCell id="WPJfF_0o5p36wVQKlJD5-9" value="" style="endArrow=classic;html=1;rounded=0;exitX=0;exitY=0.5;exitDx=0;exitDy=0;entryX=0.5;entryY=0;entryDx=0;entryDy=0;" edge="1" parent="WIyWlLk6GJQsqaUBKTNV-1" source="WPJfF_0o5p36wVQKlJD5-3" target="WPJfF_0o5p36wVQKlJD5-8">
          <mxGeometry width="50" height="50" relative="1" as="geometry">
            <mxPoint x="1670" y="-770" as="sourcePoint" />
            <mxPoint x="1720" y="-820" as="targetPoint" />
            <Array as="points">
              <mxPoint x="1750" y="-795" />
            </Array>
          </mxGeometry>
        </mxCell>
        <mxCell id="WPJfF_0o5p36wVQKlJD5-10" value="Нет" style="edgeLabel;html=1;align=center;verticalAlign=middle;resizable=0;points=[];" vertex="1" connectable="0" parent="WPJfF_0o5p36wVQKlJD5-9">
          <mxGeometry x="-0.628" y="4" relative="1" as="geometry">
            <mxPoint as="offset" />
          </mxGeometry>
        </mxCell>
        <mxCell id="WPJfF_0o5p36wVQKlJD5-17" style="edgeStyle=orthogonalEdgeStyle;rounded=0;orthogonalLoop=1;jettySize=auto;html=1;exitX=0.5;exitY=0.5;exitDx=0;exitDy=0;exitPerimeter=0;entryX=0;entryY=0.5;entryDx=0;entryDy=0;" edge="1" parent="WIyWlLk6GJQsqaUBKTNV-1" source="WPJfF_0o5p36wVQKlJD5-12" target="WPJfF_0o5p36wVQKlJD5-40">
          <mxGeometry relative="1" as="geometry" />
        </mxCell>
        <mxCell id="WPJfF_0o5p36wVQKlJD5-18" value="Подписывается&lt;br&gt;на канал,&lt;br&gt;производит оплату" style="edgeLabel;html=1;align=center;verticalAlign=middle;resizable=0;points=[];" vertex="1" connectable="0" parent="WPJfF_0o5p36wVQKlJD5-17">
          <mxGeometry x="-0.5939" relative="1" as="geometry">
            <mxPoint x="51" as="offset" />
          </mxGeometry>
        </mxCell>
        <mxCell id="WPJfF_0o5p36wVQKlJD5-12" value="Participant&amp;nbsp;" style="shape=umlActor;verticalLabelPosition=bottom;verticalAlign=top;html=1;outlineConnect=0;fillColor=#dae8fc;strokeColor=#6c8ebf;gradientColor=#7ea6e0;" vertex="1" parent="WIyWlLk6GJQsqaUBKTNV-1">
          <mxGeometry x="1510" y="-110" width="40" height="75" as="geometry" />
        </mxCell>
        <mxCell id="WPJfF_0o5p36wVQKlJD5-14" value="Смарт контракт" style="shape=document;whiteSpace=wrap;html=1;boundedLbl=1;" vertex="1" parent="WIyWlLk6GJQsqaUBKTNV-1">
          <mxGeometry x="1830" y="-440" width="200" height="150" as="geometry" />
        </mxCell>
        <mxCell id="WPJfF_0o5p36wVQKlJD5-21" style="edgeStyle=orthogonalEdgeStyle;rounded=0;orthogonalLoop=1;jettySize=auto;html=1;exitX=0.5;exitY=0;exitDx=0;exitDy=0;entryX=0.496;entryY=0.858;entryDx=0;entryDy=0;entryPerimeter=0;" edge="1" parent="WIyWlLk6GJQsqaUBKTNV-1" source="WPJfF_0o5p36wVQKlJD5-20" target="WPJfF_0o5p36wVQKlJD5-14">
          <mxGeometry relative="1" as="geometry" />
        </mxCell>
        <mxCell id="WPJfF_0o5p36wVQKlJD5-20" value="Вносимы данные&lt;br&gt;в контракт:&lt;br&gt;&lt;br&gt;Адрес участника&lt;br&gt;Время оплаты&lt;br&gt;" style="shape=internalStorage;whiteSpace=wrap;html=1;backgroundOutline=1;" vertex="1" parent="WIyWlLk6GJQsqaUBKTNV-1">
          <mxGeometry x="1850" y="-240" width="160" height="130" as="geometry" />
        </mxCell>
        <mxCell id="WPJfF_0o5p36wVQKlJD5-25" value="Провайдер&lt;br&gt;сервиса" style="ellipse;shape=cloud;whiteSpace=wrap;html=1;" vertex="1" parent="WIyWlLk6GJQsqaUBKTNV-1">
          <mxGeometry x="1480" y="-412.5" width="140" height="95" as="geometry" />
        </mxCell>
        <mxCell id="WPJfF_0o5p36wVQKlJD5-26" value="" style="endArrow=classic;startArrow=classic;html=1;rounded=0;entryX=0;entryY=0.5;entryDx=0;entryDy=0;exitX=0.875;exitY=0.5;exitDx=0;exitDy=0;exitPerimeter=0;" edge="1" parent="WIyWlLk6GJQsqaUBKTNV-1">
          <mxGeometry width="50" height="50" relative="1" as="geometry">
            <mxPoint x="1605" y="-383" as="sourcePoint" />
            <mxPoint x="1830" y="-383" as="targetPoint" />
          </mxGeometry>
        </mxCell>
        <mxCell id="WPJfF_0o5p36wVQKlJD5-27" value="Проверка оплат&lt;br&gt;участников" style="edgeLabel;html=1;align=center;verticalAlign=middle;resizable=0;points=[];" vertex="1" connectable="0" parent="WPJfF_0o5p36wVQKlJD5-26">
          <mxGeometry x="-0.1328" relative="1" as="geometry">
            <mxPoint as="offset" />
          </mxGeometry>
        </mxCell>
        <mxCell id="WPJfF_0o5p36wVQKlJD5-32" style="edgeStyle=orthogonalEdgeStyle;rounded=0;orthogonalLoop=1;jettySize=auto;html=1;exitX=0.5;exitY=0.5;exitDx=0;exitDy=0;exitPerimeter=0;entryX=0.5;entryY=1;entryDx=0;entryDy=0;" edge="1" parent="WIyWlLk6GJQsqaUBKTNV-1" source="WPJfF_0o5p36wVQKlJD5-30" target="WPJfF_0o5p36wVQKlJD5-31">
          <mxGeometry relative="1" as="geometry" />
        </mxCell>
        <mxCell id="WPJfF_0o5p36wVQKlJD5-33" value="Голосование&lt;br&gt;за канал" style="edgeLabel;html=1;align=center;verticalAlign=middle;resizable=0;points=[];" vertex="1" connectable="0" parent="WPJfF_0o5p36wVQKlJD5-32">
          <mxGeometry x="0.2473" relative="1" as="geometry">
            <mxPoint as="offset" />
          </mxGeometry>
        </mxCell>
        <mxCell id="WPJfF_0o5p36wVQKlJD5-30" value="Подписчик&lt;br&gt;канала" style="shape=umlActor;verticalLabelPosition=bottom;verticalAlign=top;html=1;outlineConnect=0;fillColor=#d5e8d4;strokeColor=#82b366;gradientColor=#97d077;" vertex="1" parent="WIyWlLk6GJQsqaUBKTNV-1">
          <mxGeometry x="2220" y="-110" width="40" height="75" as="geometry" />
        </mxCell>
        <mxCell id="WPJfF_0o5p36wVQKlJD5-34" style="edgeStyle=orthogonalEdgeStyle;rounded=0;orthogonalLoop=1;jettySize=auto;html=1;exitX=0;exitY=0.5;exitDx=0;exitDy=0;entryX=1;entryY=0.75;entryDx=0;entryDy=0;" edge="1" parent="WIyWlLk6GJQsqaUBKTNV-1" source="WPJfF_0o5p36wVQKlJD5-31" target="WPJfF_0o5p36wVQKlJD5-14">
          <mxGeometry relative="1" as="geometry" />
        </mxCell>
        <mxCell id="WPJfF_0o5p36wVQKlJD5-37" value="Да" style="edgeLabel;html=1;align=center;verticalAlign=middle;resizable=0;points=[];" vertex="1" connectable="0" parent="WPJfF_0o5p36wVQKlJD5-34">
          <mxGeometry x="-0.7995" relative="1" as="geometry">
            <mxPoint as="offset" />
          </mxGeometry>
        </mxCell>
        <mxCell id="WPJfF_0o5p36wVQKlJD5-38" value="Результат&lt;br&gt;заносится&lt;br&gt;в блокчейн" style="edgeLabel;html=1;align=center;verticalAlign=middle;resizable=0;points=[];" vertex="1" connectable="0" parent="WPJfF_0o5p36wVQKlJD5-34">
          <mxGeometry x="0.1669" y="-4" relative="1" as="geometry">
            <mxPoint as="offset" />
          </mxGeometry>
        </mxCell>
        <mxCell id="WPJfF_0o5p36wVQKlJD5-31" value="С момента &lt;br&gt;оплаты прошёл &lt;br&gt;некий таймаут" style="rhombus;whiteSpace=wrap;html=1;" vertex="1" parent="WIyWlLk6GJQsqaUBKTNV-1">
          <mxGeometry x="2165" y="-340" width="150" height="150" as="geometry" />
        </mxCell>
        <mxCell id="WPJfF_0o5p36wVQKlJD5-35" value="" style="endArrow=classic;startArrow=classic;html=1;rounded=0;entryX=0;entryY=0.5;entryDx=0;entryDy=0;exitX=0.875;exitY=0.5;exitDx=0;exitDy=0;exitPerimeter=0;" edge="1" parent="WIyWlLk6GJQsqaUBKTNV-1">
          <mxGeometry width="50" height="50" relative="1" as="geometry">
            <mxPoint x="1605" y="-340" as="sourcePoint" />
            <mxPoint x="1830" y="-340" as="targetPoint" />
          </mxGeometry>
        </mxCell>
        <mxCell id="WPJfF_0o5p36wVQKlJD5-36" value="Получение рейтинга&lt;br&gt;автора" style="edgeLabel;html=1;align=center;verticalAlign=middle;resizable=0;points=[];" vertex="1" connectable="0" parent="WPJfF_0o5p36wVQKlJD5-35">
          <mxGeometry x="-0.1328" relative="1" as="geometry">
            <mxPoint as="offset" />
          </mxGeometry>
        </mxCell>
        <mxCell id="WPJfF_0o5p36wVQKlJD5-41" style="edgeStyle=orthogonalEdgeStyle;rounded=0;orthogonalLoop=1;jettySize=auto;html=1;exitX=1;exitY=0.5;exitDx=0;exitDy=0;entryX=0.5;entryY=1;entryDx=0;entryDy=0;" edge="1" parent="WIyWlLk6GJQsqaUBKTNV-1" source="WPJfF_0o5p36wVQKlJD5-40" target="WPJfF_0o5p36wVQKlJD5-20">
          <mxGeometry relative="1" as="geometry" />
        </mxCell>
        <mxCell id="WPJfF_0o5p36wVQKlJD5-42" value="Нет" style="edgeLabel;html=1;align=center;verticalAlign=middle;resizable=0;points=[];" vertex="1" connectable="0" parent="WPJfF_0o5p36wVQKlJD5-41">
          <mxGeometry x="-0.4696" y="-1" relative="1" as="geometry">
            <mxPoint as="offset" />
          </mxGeometry>
        </mxCell>
        <mxCell id="WPJfF_0o5p36wVQKlJD5-40" value="Адрес в&lt;br&gt;чёрном&lt;br&gt;списке" style="rhombus;whiteSpace=wrap;html=1;" vertex="1" parent="WIyWlLk6GJQsqaUBKTNV-1">
          <mxGeometry x="1695" y="-127.5" width="110" height="110" as="geometry" />
        </mxCell>
      </root>
    </mxGraphModel>
  </diagram>
</mxfile>
